<?xml version="1.0" encoding="UTF-8"?>
<!-- Generator: Adobe Illustrator 27.9.4, SVG Export Plug-In . SVG Version: 9.03 Build 54784)  -->
<svg xmlns="http://www.w3.org/2000/svg" xmlns:xlink="http://www.w3.org/1999/xlink" version="1.1" id="Layer_1" x="0px" y="0px" viewBox="0 0 840.2 255.1" style="enable-background:new 0 0 840.2 255.1;" xml:space="preserve">
<style type="text/css">
	.st0{fill:#FFFFFF;}
</style>
<g>
	<path class="st0" d="M472.1,142.4c-9.5,0-16.6-7.1-16.6-16.1s6.9-16.1,16.8-16.1c6,0,9.6,2,12.8,4.8l-3.7,4.1   c-2.6-2.3-5.4-3.9-9.1-3.9c-6.2,0-10.8,4.9-10.8,11c0,6.1,4.5,11.1,10.8,11.1c4,0,6.6-1.6,9.4-4.1l3.7,3.6   C481.9,140.3,478.2,142.4,472.1,142.4L472.1,142.4L472.1,142.4L472.1,142.4z"></path>
	<path class="st0" d="M504.8,142.4c-10,0-17-7.2-17-16.1s7.1-16.1,17.1-16.1c10,0,17,7.2,17,16.1S514.8,142.4,504.8,142.4   L504.8,142.4L504.8,142.4z M504.8,115.2c-6.5,0-11,4.9-11,11c0,6.1,4.6,11.1,11.1,11.1s11-4.9,11-11S511.3,115.2,504.8,115.2   L504.8,115.2L504.8,115.2z"></path>
	<path class="st0" d="M543.7,134.2h-0.2l-10.2-14.6v22.2h-5.6v-31.1h6.1l9.9,14.7l9.9-14.7h6.1v31.1H554v-22.3L543.7,134.2   L543.7,134.2L543.7,134.2z"></path>
	<path class="st0" d="M583,134.2h-0.2l-10.2-14.6v22.2H567v-31.1h6.1l9.9,14.7l9.9-14.7h6.1v31.1h-5.7v-22.3L583,134.2L583,134.2   L583,134.2z"></path>
	<path class="st0" d="M633.7,128.4c0,9.3-5.5,14-14,14s-13.9-4.7-13.9-13.7v-17.9h5.7v17.7c0,5.8,3.1,8.9,8.2,8.9s8.2-2.9,8.2-8.7   v-17.9h5.7L633.7,128.4L633.7,128.4L633.7,128.4z"></path>
	<path class="st0" d="M663.2,110.8h5.6v31.1H664l-18-22.1v22.1h-5.6v-31.1h5.3l17.5,21.5C663.2,132.3,663.2,110.8,663.2,110.8z"></path>
	<path class="st0" d="M682.1,110.8v31.1h-5.7v-31.1H682.1z"></path>
	<path class="st0" d="M703.5,141.9h-5.8v-26.1h-10.3v-5.1h26.5v5.1h-10.3L703.5,141.9L703.5,141.9L703.5,141.9z"></path>
	<path class="st0" d="M734.1,141.9h-5.8v-12.3l-13-18.8h6.8l9.1,13.8l9.2-13.8h6.6l-13,18.7L734.1,141.9L734.1,141.9L734.1,141.9z"></path>
	<path class="st0" d="M469.2,184.8h-6.5v10H457v-31.1h12.9c7.6,0,12.4,4.1,12.4,10.4C482.2,181.1,476.3,184.8,469.2,184.8   L469.2,184.8L469.2,184.8z M469.4,168.6h-6.7v11.2h6.7c4.3,0,7-2.3,7-5.6C476.4,170.5,473.6,168.6,469.4,168.6L469.4,168.6   L469.4,168.6z"></path>
	<path class="st0" d="M514.9,194.8h-6.1l-3.3-7.5h-15.4l-3.4,7.5h-5.9l14.4-31.3h5.3L514.9,194.8L514.9,194.8z M497.8,170l-5.6,12.4   h11.2L497.8,170z"></path>
	<path class="st0" d="M540.2,194.8l-8-10.9H525v10.9h-5.7v-31.1h14.5c7.5,0,12.1,3.8,12.1,9.9c0,5.2-3.2,8.3-7.8,9.5l8.8,11.8H540.2   L540.2,194.8L540.2,194.8z M533.4,168.6H525v10.4h8.4c4.1,0,6.7-2,6.7-5.2C540.2,170.4,537.6,168.6,533.4,168.6z"></path>
	<path class="st0" d="M565.5,194.8h-5.8v-26.1h-10.3v-5.1h26.5v5.1h-10.3L565.5,194.8L565.5,194.8L565.5,194.8z"></path>
	<path class="st0" d="M603.5,163.7h5.6v31.1h-4.8l-18-22.1v22.1h-5.6v-31.1h5.3l17.5,21.5V163.7z"></path>
	<path class="st0" d="M640.6,168.6h-18.5v8.1h16.3v4.9h-16.3v8.4h18.7v4.9h-24.4v-31.1h24.2V168.6z"></path>
	<path class="st0" d="M667.4,194.8l-8-10.9h-7.2v10.9h-5.7v-31.1H661c7.5,0,12.1,3.8,12.1,9.9c0,5.2-3.2,8.3-7.8,9.5l8.8,11.8H667.4   L667.4,194.8L667.4,194.8z M660.5,168.6h-8.3v10.4h8.4c4.1,0,6.7-2,6.7-5.2C667.3,170.4,664.8,168.6,660.5,168.6z"></path>
	<path class="st0" d="M691.6,176.7c6.9,1.6,10.5,4,10.5,9.2c0,5.9-4.8,9.3-11.7,9.3c-5,0-9.7-1.6-13.6-5l3.5-3.9   c3.1,2.6,6.2,4.1,10.3,4.1c3.5,0,5.8-1.6,5.8-4c0-2.3-1.3-3.5-7.4-4.8c-6.9-1.6-10.8-3.6-10.8-9.3c0-5.4,4.7-9.1,11.1-9.1   c4.8,0,8.5,1.4,11.8,3.9l-3.1,4.1c-2.9-2.1-5.9-3.2-8.8-3.2c-3.3,0-5.3,1.6-5.3,3.7C683.9,174.2,685.3,175.3,691.6,176.7   L691.6,176.7L691.6,176.7z"></path>
	<path class="st0" d="M463,216.6v31.1h-5.7v-31.1H463z"></path>
	<path class="st0" d="M493.4,216.6h5.6v31.1h-4.8l-18-22.1v22.1h-5.6v-31.1h5.3l17.5,21.5V216.6z"></path>
	<path class="st0" d="M520,247.7h-5.8v-26.1h-10.3v-5.1h26.5v5.1H520L520,247.7L520,247.7L520,247.7z"></path>
	<path class="st0" d="M559.4,221.4H541v8.1h16.3v4.9H541v8.4h18.7v4.9h-24.4v-31.1h24.2V221.4z"></path>
	<path class="st0" d="M586.2,247.7l-8-10.9H571v10.9h-5.7v-31.1h14.5c7.5,0,12.1,3.8,12.1,9.9c0,5.2-3.2,8.3-7.8,9.5l8.8,11.8H586.2   L586.2,247.7L586.2,247.7z M579.4,221.5H571V232h8.4c4.1,0,6.7-2,6.7-5.2C586.2,223.3,583.6,221.5,579.4,221.5z"></path>
	<path class="st0" d="M620.6,216.6h5.6v31.1h-4.8l-18-22.1v22.1h-5.6v-31.1h5.3l17.5,21.5V216.6z"></path>
	<path class="st0" d="M664.7,247.7h-6.1l-3.3-7.5H640l-3.3,7.5h-5.9l14.3-31.3h5.3L664.7,247.7L664.7,247.7z M647.6,222.9l-5.6,12.4   h11.2L647.6,222.9L647.6,222.9L647.6,222.9z"></path>
	<path class="st0" d="M678.8,247.7H673v-26.1h-10.3v-5.1h26.5v5.1h-10.3L678.8,247.7L678.8,247.7L678.8,247.7z"></path>
	<path class="st0" d="M700.1,216.6v31.1h-5.7v-31.1H700.1z"></path>
	<path class="st0" d="M723.2,248.2c-10,0-17-7.2-17-16.1s7.1-16.1,17.1-16.1s17,7.2,17,16.1S733.2,248.2,723.2,248.2z M723.2,221.1   c-6.5,0-11,4.9-11,11s4.6,11.1,11.1,11.1s11-4.9,11-11S729.7,221,723.2,221.1L723.2,221.1L723.2,221.1z"></path>
	<path class="st0" d="M768.8,216.6h5.6v31.1h-4.8l-18-22.1v22.1h-5.6v-31.1h5.3l17.5,21.5V216.6z"></path>
	<path class="st0" d="M812.9,247.7h-6.1l-3.3-7.5h-15.4l-3.3,7.5h-5.9l14.3-31.3h5.3L812.9,247.7L812.9,247.7z M795.8,222.9   l-5.6,12.4h11.2L795.8,222.9L795.8,222.9L795.8,222.9z"></path>
	<path class="st0" d="M817.4,216.6h5.7v26.1h17.1v5h-22.9V216.6z"></path>
</g>
<path class="st0" d="M118.8,129.6c1.5-2.4,3.2-4.6,5-6.8c8.9-12.9,18-23.4,20.9-38.8C149.7,57.3,131,0,131,0  c-22.6,21.7-40.3,55.9-40.3,55.9C122.2,91.5,119.7,123.6,118.8,129.6z"></path>
<path class="st0" d="M118.8,129.7c0.7-8,2.2-62.9-86.3-89.5c0,0,2.6,32.8,12.2,68.8c0,0,51.4,3.8,63.1,46.6  C110,146.2,113.8,137.4,118.8,129.7L118.8,129.7L118.8,129.7z"></path>
<path class="st0" d="M106.2,184.6c-0.2-1.9-0.3-3.8-0.4-5.8c-0.4-8,0.4-15.8,2.1-23.2C86.5,104,0,117.1,0,117.1S18.8,158,65.8,209  c36.4,39.4,79.9,45.8,102.2,46.2c-1.6,0-3.5-0.6-5.1-1c-1.7-0.4-3.4-0.9-5.1-1.4c-3.3-1.1-6.6-2.4-9.7-4  c-6.3-3.2-12.2-7.4-17.3-12.3c-5.3-5.1-9.8-10.9-13.5-17.2c-3.9-6.6-6.8-13.8-8.7-21.2C107.4,193.5,106.6,189.1,106.2,184.6  L106.2,184.6L106.2,184.6z"></path>
<path class="st0" d="M92.1,210.5c-42.7-48.1-62.3-87.6-65.7-94.8C11.1,115.4,0,117.1,0,117.1S18.8,158,65.8,209  c34.7,37.6,75.9,45.1,98.9,46.1C142.7,249.6,115.9,237.4,92.1,210.5z"></path>
<g>
	<path class="st0" d="M199.1,252.7c-40.1,0-70-32.3-70-73.1v-0.4c0-40.4,29.2-73.5,71.1-73.5c22.6,0,37.2,6.9,49,17.3   c2.8,2.4,3,6.8,0.7,9.6l-10.8,13c-2.2,2.7-6.1,3-8.8,0.8c-9.1-7.4-18.6-11.9-30.2-11.9c-23,0-39.6,19.9-39.6,44.3v2.9   c0,22.7,17.8,42.3,39.7,42.2c13.4,0,22.3-4.8,31.4-12.6c2.5-2.2,6.3-2,8.6,0.4l10.4,10.9c2.6,2.7,2.6,7.1-0.1,9.7   C237.5,245,222.6,252.8,199.1,252.7L199.1,252.7L199.1,252.7L199.1,252.7z"></path>
	<path class="st0" d="M323.9,207.6h-22.8v34.6c0,4.5-3.5,8.1-7.8,8.1h-14.5c-4.3,0-7.8-3.6-7.8-8.1V119.4c0-6.2,4.8-11.2,10.8-11.2   h45c32.5,0,52.2,20.1,52.2,49.1v0.4C379,190.6,354.5,207.6,323.9,207.6L323.9,207.6z M348.6,157.9c0-14-9.4-21.5-24.4-21.5H301   v43.5h23.8c15,0,23.8-9.3,23.8-21.5L348.6,157.9L348.6,157.9L348.6,157.9z"></path>
	<path class="st0" d="M399.1,242.8V115.6c0-4.2,3.2-7.5,7.2-7.5h15.6c4,0,7.2,3.4,7.2,7.5v127.1c0,4.1-3.2,7.5-7.2,7.5h-15.6   C402.3,250.3,399.1,246.9,399.1,242.8z"></path>
</g>
<path class="st0" d="M57.6,49.5c-7.5-3.4-15.8-6.5-25.1-9.3c0,0,2.6,32.8,12.2,68.8c0,0,11.4,0.9,24.7,6.2  C61.4,84.8,58.3,57,57.6,49.5z"></path>
<path class="st0" d="M139.8,32.2C135.7,14.5,131,0,131,0c-22.6,21.7-40.3,55.9-40.3,55.9c7.1,8,12.4,15.8,16.4,23.1  C111.3,71.4,123.9,49.6,139.8,32.2L139.8,32.2L139.8,32.2z"></path>
</svg>
