<?xml version="1.0" encoding="UTF-8"?>
<svg xmlns="http://www.w3.org/2000/svg" xmlns:xlink="http://www.w3.org/1999/xlink" id="Layer_1" data-name="Layer 1" viewBox="0 0 840.25 255.14">
  <defs>
    <style>
      .cls-1 {
        fill: url(#linear-gradient);
      }

      .cls-1, .cls-2, .cls-3, .cls-4, .cls-5 {
        stroke-width: 0px;
      }

      .cls-2 {
        fill: #d91e4d;
      }

      .cls-3 {
        fill: #4a2742;
      }

      .cls-4 {
        fill: url(#linear-gradient-2);
      }

      .cls-5 {
        fill: url(#linear-gradient-3);
      }
    </style>
    <linearGradient id="linear-gradient" x1="-170.05" y1="167.83" x2="-193.17" y2="300.31" gradientTransform="translate(270.97 346.42) rotate(-5.84) scale(1 -1.02)" gradientUnits="userSpaceOnUse">
      <stop offset="0" stop-color="#d91e4d"></stop>
      <stop offset=".66" stop-color="#e9545e"></stop>
      <stop offset="1" stop-color="#f16c66"></stop>
    </linearGradient>
    <linearGradient id="linear-gradient-2" x1="-191.57" y1="265.15" x2="-191.57" y2="334.15" gradientTransform="translate(270.97 346.42) rotate(-5.84) scale(1 -1.02)" gradientUnits="userSpaceOnUse">
      <stop offset="0" stop-color="#d91e4d"></stop>
      <stop offset=".66" stop-color="#e9545e"></stop>
      <stop offset="1" stop-color="#f16c66"></stop>
    </linearGradient>
    <linearGradient id="linear-gradient-3" x1="-144.95" y1="292.13" x2="-84.79" y2="346.66" gradientTransform="translate(270.97 346.42) rotate(-5.84) scale(1 -1.02)" gradientUnits="userSpaceOnUse">
      <stop offset="0" stop-color="#d91e4d"></stop>
      <stop offset=".66" stop-color="#e9545e"></stop>
      <stop offset="1" stop-color="#f16c66"></stop>
    </linearGradient>
  </defs>
  <g>
    <path class="cls-3" d="M472.1,142.41c-9.5,0-16.58-7.07-16.58-16.05s6.94-16.14,16.81-16.14c6.01,0,9.64,2,12.76,4.84l-3.68,4.05c-2.61-2.31-5.4-3.87-9.13-3.87-6.25,0-10.76,4.89-10.76,11.02s4.52,11.11,10.76,11.11c4,0,6.57-1.56,9.36-4.05l3.68,3.56c-3.4,3.38-7.13,5.51-13.23,5.51v.02Z"></path>
    <path class="cls-3" d="M504.82,142.41c-10.02,0-17-7.25-17-16.05s7.08-16.14,17.09-16.14,17,7.25,17,16.05-7.08,16.14-17.09,16.14h0ZM504.82,115.25c-6.48,0-11,4.93-11,11.02s4.61,11.11,11.09,11.11,11-4.94,11-11.03-4.61-11.11-11.09-11.11h0Z"></path>
    <path class="cls-3" d="M543.74,134.23h-.19l-10.2-14.58v22.23h-5.64v-31.12h6.1l9.93,14.71,9.92-14.71h6.1v31.12h-5.73v-22.32l-10.29,14.67h0Z"></path>
    <path class="cls-3" d="M583.03,134.23h-.19l-10.2-14.58v22.23h-5.64v-31.12h6.1l9.93,14.71,9.92-14.71h6.1v31.12h-5.73v-22.32l-10.29,14.67h0Z"></path>
    <path class="cls-3" d="M633.69,128.41c0,9.29-5.5,13.96-14.02,13.96s-13.88-4.67-13.88-13.69v-17.91h5.73v17.69c0,5.78,3.12,8.89,8.25,8.89s8.2-2.93,8.2-8.67v-17.91h5.73v17.65h0Z"></path>
    <path class="cls-3" d="M663.19,110.76h5.64v31.12h-4.8l-17.98-22.14v22.14h-5.64v-31.12h5.31l17.47,21.52s0-21.52,0-21.52Z"></path>
    <path class="cls-3" d="M682.13,110.76v31.12h-5.73v-31.12h5.73Z"></path>
    <path class="cls-3" d="M703.47,141.87h-5.78v-26.05h-10.34v-5.07h26.46v5.07h-10.34v26.05h0Z"></path>
    <path class="cls-3" d="M734.09,141.87h-5.78v-12.27l-12.95-18.85h6.76l9.13,13.78,9.22-13.78h6.57l-12.95,18.72v12.4h0Z"></path>
    <path class="cls-3" d="M469.17,184.77h-6.48v10h-5.73v-31.12h12.86c7.59,0,12.39,4.09,12.39,10.45,0,7.02-5.87,10.67-13.04,10.67h0ZM469.35,168.64h-6.66v11.2h6.66c4.33,0,7.04-2.27,7.04-5.6,0-3.69-2.75-5.6-7.04-5.6h0Z"></path>
    <path class="cls-3" d="M514.88,194.77h-6.06l-3.3-7.51h-15.42l-3.35,7.51h-5.87l14.35-31.34h5.31l14.35,31.34h-.01ZM497.78,169.97l-5.59,12.45h11.23l-5.64-12.45Z"></path>
    <path class="cls-3" d="M540.24,194.77l-8.01-10.85h-7.18v10.85h-5.73v-31.12h14.54c7.5,0,12.11,3.78,12.11,9.87,0,5.16-3.22,8.27-7.78,9.47l8.8,11.78h-6.76.01ZM533.39,168.64h-8.34v10.45h8.39c4.1,0,6.71-2.04,6.71-5.25,0-3.42-2.51-5.2-6.76-5.2Z"></path>
    <path class="cls-3" d="M565.51,194.77h-5.78v-26.05h-10.34v-5.07h26.46v5.07h-10.34v26.05h0Z"></path>
    <path class="cls-3" d="M603.53,163.66h5.64v31.12h-4.8l-17.98-22.14v22.14h-5.64v-31.12h5.31l17.47,21.52v-21.52Z"></path>
    <path class="cls-3" d="M640.59,168.55h-18.45v8.09h16.35v4.89h-16.35v8.36h18.68v4.89h-24.41v-31.12h24.18v4.89Z"></path>
    <path class="cls-3" d="M667.39,194.77l-8.01-10.85h-7.18v10.85h-5.73v-31.12h14.54c7.5,0,12.11,3.78,12.11,9.87,0,5.16-3.22,8.27-7.78,9.47l8.8,11.78h-6.76.01ZM660.54,168.64h-8.34v10.45h8.39c4.1,0,6.71-2.04,6.71-5.25,0-3.42-2.51-5.2-6.76-5.2Z"></path>
    <path class="cls-3" d="M691.58,176.73c6.89,1.6,10.48,3.96,10.48,9.16,0,5.87-4.8,9.34-11.65,9.34-4.98,0-9.69-1.65-13.6-4.98l3.45-3.91c3.12,2.58,6.24,4.05,10.29,4.05,3.54,0,5.78-1.56,5.78-3.96,0-2.27-1.3-3.47-7.36-4.8-6.94-1.6-10.85-3.56-10.85-9.33,0-5.42,4.66-9.07,11.13-9.07,4.75,0,8.53,1.38,11.83,3.91l-3.07,4.13c-2.94-2.09-5.87-3.2-8.85-3.2-3.35,0-5.31,1.64-5.31,3.73,0,2.44,1.49,3.51,7.73,4.93h0Z"></path>
    <path class="cls-3" d="M463.02,216.56v31.12h-5.73v-31.12h5.73Z"></path>
    <path class="cls-3" d="M493.35,216.56h5.64v31.12h-4.8l-17.98-22.14v22.14h-5.64v-31.12h5.31l17.47,21.52v-21.52Z"></path>
    <path class="cls-3" d="M520.01,247.67h-5.78v-26.05h-10.34v-5.07h26.46v5.07h-10.34v26.05h0Z"></path>
    <path class="cls-3" d="M559.44,221.45h-18.45v8.09h16.35v4.89h-16.35v8.36h18.68v4.89h-24.41v-31.12h24.18v4.89Z"></path>
    <path class="cls-3" d="M586.24,247.67l-8.01-10.85h-7.18v10.85h-5.73v-31.12h14.54c7.5,0,12.11,3.78,12.11,9.87,0,5.16-3.22,8.27-7.78,9.47l8.8,11.78h-6.76.01ZM579.39,221.54h-8.34v10.45h8.39c4.1,0,6.71-2.04,6.71-5.25,0-3.42-2.51-5.2-6.76-5.2Z"></path>
    <path class="cls-3" d="M620.64,216.56h5.64v31.12h-4.8l-17.98-22.14v22.14h-5.64v-31.12h5.31l17.47,21.52v-21.52Z"></path>
    <path class="cls-3" d="M664.73,247.67h-6.06l-3.3-7.51h-15.42l-3.35,7.51h-5.87l14.35-31.34h5.31l14.35,31.34h-.01ZM647.63,222.87l-5.59,12.45h11.23l-5.64-12.45h0Z"></path>
    <path class="cls-3" d="M678.76,247.67h-5.78v-26.05h-10.34v-5.07h26.46v5.07h-10.34v26.05h0Z"></path>
    <path class="cls-3" d="M700.07,216.56v31.12h-5.73v-31.12h5.73Z"></path>
    <path class="cls-3" d="M723.18,248.21c-10.02,0-17-7.25-17-16.05s7.08-16.14,17.09-16.14,17,7.25,17,16.05-7.08,16.14-17.09,16.14ZM723.18,221.05c-6.48,0-11,4.93-11,11.02s4.61,11.11,11.09,11.11,11-4.94,11-11.03-4.61-11.11-11.09-11.11h0Z"></path>
    <path class="cls-3" d="M768.85,216.56h5.64v31.12h-4.8l-17.98-22.14v22.14h-5.64v-31.12h5.31l17.47,21.52v-21.52Z"></path>
    <path class="cls-3" d="M812.94,247.67h-6.06l-3.3-7.51h-15.42l-3.35,7.51h-5.87l14.35-31.34h5.31l14.35,31.34h-.01ZM795.84,222.87l-5.59,12.45h11.23l-5.64-12.45h0Z"></path>
    <path class="cls-3" d="M817.38,216.56h5.73v26.14h17.14v4.98h-22.87v-31.12Z"></path>
  </g>
  <path class="cls-2" d="M118.84,129.62c1.54-2.36,3.2-4.61,4.97-6.76,8.88-12.89,18.02-23.4,20.89-38.8,4.99-26.8-13.73-84.06-13.73-84.06-22.59,21.68-40.35,55.88-40.35,55.88,31.61,35.63,29.05,67.67,28.22,73.74Z"></path>
  <path class="cls-2" d="M118.78,129.71c.72-8.04,2.22-62.91-86.28-89.53,0,0,2.61,32.77,12.22,68.83,0,0,51.42,3.85,63.12,46.6,2.18-9.44,5.92-18.19,10.95-25.9h0Z"></path>
  <path class="cls-2" d="M106.18,184.62c-.19-1.91-.33-3.84-.41-5.77-.37-8,.36-15.77,2.06-23.16C86.48,104.01,0,117.1,0,117.1c0,0,18.77,40.93,65.79,91.88,36.41,39.45,79.94,45.79,102.15,46.16-1.65-.03-3.48-.62-5.08-1-1.71-.41-3.4-.89-5.06-1.43-3.34-1.09-6.58-2.44-9.71-4.04-6.33-3.23-12.16-7.42-17.28-12.34-5.29-5.07-9.84-10.91-13.54-17.23-3.86-6.61-6.79-13.76-8.73-21.17-1.15-4.39-1.9-8.82-2.35-13.31h0Z"></path>
  <path class="cls-1" d="M92.05,210.5C49.38,162.38,29.79,122.87,26.39,115.65c-15.25-.22-26.39,1.45-26.39,1.45,0,0,18.77,40.93,65.79,91.88,34.73,37.63,75.89,45.12,98.89,46.05-21.95-5.4-48.76-17.6-72.63-44.53Z"></path>
  <g>
    <path class="cls-3" d="M199.15,252.74c-40.15,0-69.97-32.29-69.97-73.11v-.41c0-40.42,29.24-73.52,71.14-73.52,22.55,0,37.17,6.87,48.97,17.32,2.75,2.43,3.02,6.8.67,9.62l-10.83,13.01c-2.22,2.67-6.15,2.97-8.83.77-9.06-7.45-18.56-11.87-30.17-11.87-23,0-39.57,19.9-39.57,44.28v2.86c0,22.73,17.84,42.26,39.66,42.23,13.38-.02,22.3-4.84,31.35-12.64,2.52-2.18,6.31-2.03,8.6.38l10.36,10.91c2.6,2.74,2.55,7.09-.14,9.74-12.89,12.72-27.82,20.45-51.24,20.45v-.02Z"></path>
    <path class="cls-3" d="M323.85,207.65h-22.8v34.57c0,4.46-3.47,8.08-7.75,8.08h-14.51c-4.28,0-7.75-3.62-7.75-8.08v-122.84c0-6.21,4.83-11.25,10.79-11.25h44.95c32.55,0,52.24,20.11,52.24,49.15v.41c0,32.9-24.56,49.96-55.16,49.96h-.01ZM348.6,157.89c0-14.01-9.35-21.53-24.36-21.53h-23.19v43.46h23.78c15.01,0,23.78-9.34,23.78-21.53v-.41h0Z"></path>
    <path class="cls-3" d="M399.08,242.78v-127.14c0-4.15,3.23-7.52,7.21-7.52h15.59c3.98,0,7.21,3.36,7.21,7.52v127.14c0,4.15-3.23,7.52-7.21,7.52h-15.59c-3.98,0-7.21-3.36-7.21-7.52Z"></path>
  </g>
  <path class="cls-4" d="M57.61,49.5c-7.45-3.36-15.75-6.51-25.12-9.32,0,0,2.61,32.77,12.22,68.83,0,0,11.38.86,24.66,6.21-8-30.42-11.04-58.22-11.76-65.72Z"></path>
  <path class="cls-5" d="M139.77,32.25c-4.07-17.79-8.79-32.25-8.79-32.25-22.59,21.68-40.35,55.88-40.35,55.88,7.08,7.97,12.37,15.75,16.42,23.11,4.21-7.64,16.83-29.38,32.72-46.74h0Z"></path>
</svg>
